<svg width="63" height="48" viewBox="0 0 63 48" fill="none" xmlns="http://www.w3.org/2000/svg">
<g filter="url(#filter0_d_211_823)">
<g clip-path="url(#clip0_211_823)">
<path d="M58.9957 19.5165C59.0015 19.4748 59.0015 19.4326 58.9957 19.3909C59.0011 19.3569 59.0011 19.3223 58.9957 19.2882L58.5883 16.3556C58.5295 16.0047 58.3723 15.6768 58.1344 15.4085L58.0645 15.3286L57.9365 15.2031L50.8829 9.24648L51.0808 9.44048C50.9189 9.2506 50.7157 9.09872 50.4861 8.99602C50.2565 8.89333 50.0062 8.84244 49.7539 8.8471H47.6122C47.2639 8.84034 46.9236 8.94889 46.6461 9.1552C46.3547 8.95013 46.0038 8.84213 45.6451 8.8471H43.5034C43.2225 8.84263 42.9454 8.91098 42.7001 9.04523C42.4549 9.17948 42.2501 9.37488 42.1067 9.61164C41.8855 9.94979 41.8023 10.3572 41.8738 10.7527L42.1416 12.6013C41.9642 12.5028 41.7635 12.4516 41.5596 12.453H31.1887C30.8166 12.4553 30.4531 12.5622 30.1411 12.7611C29.8395 12.9462 29.5973 13.2113 29.4428 13.5256L28.6396 12.8524C28.3235 12.5656 27.9063 12.4102 27.4757 12.4188H11.2035C10.8301 12.4254 10.465 12.5277 10.1444 12.7155C9.70569 12.9672 9.38421 13.3764 9.24809 13.8566L4.08012 30.802C3.98355 31.0812 3.97406 31.3824 4.05284 31.6669C4.13162 31.9514 4.29511 32.2065 4.52243 32.3996C4.58166 32.4488 4.64385 32.4945 4.70866 32.5365C4.70866 32.5365 4.60389 32.468 4.54569 32.411L11.5993 38.379C11.8977 38.6483 12.2878 38.7988 12.6934 38.8011H29.0936C29.4681 38.7916 29.8335 38.6853 30.1528 38.493C30.3334 38.3963 30.495 38.2688 30.63 38.1165L30.6882 38.0366L30.7813 37.9225L30.8512 37.797L31.6194 38.4474C31.9135 38.706 32.2951 38.8483 32.6902 38.8468H49.1253C49.4994 38.8346 49.8641 38.7285 50.1845 38.5387C50.361 38.436 50.5217 38.3092 50.6618 38.1621L50.7199 38.0823L50.813 37.9682C50.8625 37.896 50.9055 37.8196 50.941 37.7399C50.9791 37.6707 51.0103 37.5981 51.0342 37.5231L55.7482 22.0497V21.9128C55.754 21.8597 55.754 21.8061 55.7482 21.753V21.6504C55.7539 21.6163 55.7539 21.5817 55.7482 21.5476C55.7535 21.4755 55.7535 21.403 55.7482 21.3308H57.2614C57.393 21.3426 57.5255 21.3426 57.6571 21.3308H57.7619C57.8471 21.3059 57.9291 21.2714 58.0063 21.2281H58.1227L58.3322 21.0684L58.4253 20.9999L58.5883 20.7945V20.7261L58.7047 20.532C58.6982 20.4943 58.6982 20.4557 58.7047 20.418C58.6985 20.3994 58.6985 20.3794 58.7047 20.3609C58.7294 20.294 58.7489 20.2253 58.7629 20.1555C58.7575 20.133 58.7575 20.1095 58.7629 20.087C58.7572 20.053 58.7572 20.0183 58.7629 19.9843C58.7629 19.9843 58.9957 19.5393 58.9957 19.5165Z" fill="black"/>
<path d="M27.9529 13.7197C28.0147 13.7745 28.0578 13.8465 28.0765 13.9261C28.0953 14.0057 28.0887 14.089 28.0577 14.1647L22.9013 31.0988C22.8364 31.2836 22.7036 31.4382 22.5289 31.5324C22.3867 31.6256 22.2222 31.6807 22.0516 31.6922H5.6631C5.52314 31.6856 5.39055 31.6287 5.29063 31.5324C5.23119 31.4785 5.18948 31.4084 5.17081 31.3313C5.15215 31.254 5.15741 31.1731 5.18588 31.0988L10.3539 14.1647C10.4134 13.9775 10.5421 13.8188 10.7147 13.7197C10.8592 13.6332 11.0229 13.5823 11.1919 13.5714H27.5804C27.7193 13.5727 27.8524 13.6257 27.9529 13.7197ZM19.3978 27.6869L22.4823 17.5766H13.8457L10.7729 27.6869H19.3978ZM43.5965 13.8909C43.6524 13.9546 43.7223 14.0051 43.8009 14.0387C43.8795 14.0723 43.9647 14.088 44.0505 14.0849H46.1805C46.2616 14.0856 46.3415 14.0661 46.4129 14.0282C46.4841 13.9903 46.5443 13.9351 46.5879 13.868C46.6257 13.8156 46.6524 13.7563 46.6664 13.6936C46.6804 13.6308 46.6814 13.566 46.6693 13.5029L46.2503 10.4904C46.2104 10.3509 46.1388 10.2222 46.0408 10.1138C45.9848 10.0501 45.915 9.99958 45.8364 9.966C45.7578 9.93241 45.6725 9.91663 45.5869 9.91982H43.4568C43.3757 9.91905 43.2957 9.93855 43.2245 9.97648C43.1532 10.0144 43.0929 10.0695 43.0495 10.1366C42.9679 10.2964 42.933 10.3991 42.9679 10.4904L43.3986 13.5029C43.4207 13.6496 43.4901 13.7855 43.5965 13.8909ZM50.3591 10.4676C50.3192 10.3281 50.2475 10.1994 50.1496 10.091C50.096 10.0275 50.0282 9.97701 49.9515 9.94336C49.8748 9.90972 49.7912 9.89385 49.7073 9.897H47.5656C47.4858 9.89477 47.4069 9.91374 47.3372 9.95191C47.2676 9.99008 47.2097 10.046 47.1699 10.1138C47.0924 10.215 47.0589 10.3422 47.0768 10.4676L47.5074 13.4801C47.5344 13.6252 47.603 13.7598 47.7053 13.868C47.7622 13.9305 47.8322 13.9802 47.9106 14.0137C47.989 14.0471 48.0737 14.0636 48.1592 14.062H50.3009C50.3805 14.0631 50.4589 14.0436 50.5283 14.0055C50.5978 13.9675 50.6559 13.9122 50.6967 13.8452C50.7372 13.7942 50.7654 13.7349 50.7795 13.6717C50.7937 13.6085 50.7931 13.543 50.7781 13.4801L50.3591 10.4676ZM41.7225 15.032L41.513 13.5485H31.1887C31.0266 13.5573 30.8698 13.6085 30.7347 13.6969C30.649 13.7427 30.5744 13.8062 30.5161 13.8831C30.4579 13.9599 30.4173 14.0482 30.3972 14.1419L29.5359 16.9718C29.5015 17.0426 29.4897 17.1219 29.5022 17.1993C29.5147 17.2767 29.5508 17.3486 29.6057 17.4055C29.7039 17.4959 29.832 17.5487 29.9666 17.5538H42.514L39.4295 27.6641H26.917C26.7556 27.6677 26.5985 27.7151 26.4631 27.8009C26.2984 27.9035 26.1782 28.0619 26.1255 28.246L25.2525 31.076C25.224 31.1486 25.2165 31.2275 25.2309 31.304C25.2453 31.3805 25.2809 31.4516 25.334 31.5095C25.4291 31.6061 25.5582 31.6632 25.6948 31.6693H42.1299C42.2999 31.655 42.4637 31.6001 42.6071 31.5095C42.779 31.4149 42.9079 31.26 42.9679 31.076L47.6936 15.6025H42.3743C42.2899 15.6042 42.2061 15.5888 42.1281 15.5574C42.05 15.526 41.9793 15.4792 41.9204 15.4199C41.8242 15.3165 41.7561 15.1909 41.7225 15.0548V15.032Z" fill="white"/>
</g>
</g>
<defs>
<filter id="filter0_d_211_823" x="0" y="0" width="63" height="56" filterUnits="userSpaceOnUse" color-interpolation-filters="sRGB">
<feFlood flood-opacity="0" result="BackgroundImageFix"/>
<feColorMatrix in="SourceAlpha" type="matrix" values="0 0 0 0 0 0 0 0 0 0 0 0 0 0 0 0 0 0 127 0" result="hardAlpha"/>
<feOffset dy="4"/>
<feGaussianBlur stdDeviation="2"/>
<feComposite in2="hardAlpha" operator="out"/>
<feColorMatrix type="matrix" values="0 0 0 0 0 0 0 0 0 0 0 0 0 0 0 0 0 0 0.25 0"/>
<feBlend mode="normal" in2="BackgroundImageFix" result="effect1_dropShadow_211_823"/>
<feBlend mode="normal" in="SourceGraphic" in2="effect1_dropShadow_211_823" result="shape"/>
</filter>
<clipPath id="clip0_211_823">
<rect width="55" height="30" fill="white" transform="translate(4 8.8468)"/>
</clipPath>
</defs>
</svg>
